<svg version="1" xmlns="http://www.w3.org/2000/svg" width="933.333" height="933.333" viewBox="0 0 700.000000 700.000000"><path d="M32.3 1.5c-2.9.8-7.2 2.4-9.5 3.6C17 8 8.8 16 5.7 21.8-.4 33.1 0 8.9 0 350c0 337.3-.3 316.6 5.1 327.2 5.2 10.2 17.5 19.3 29.2 21.7 3.7.8 97.5 1 318.7.9l313.5-.3 5.5-2.2c11.1-4.6 20.7-14.2 25.3-25.3l2.2-5.5.3-313.5c.1-221.2-.1-315-.9-318.7-3.3-16.2-16.8-29.8-32.7-33.2-3.9-.8-89.8-1.1-317-1C83.9.1 36.7.3 32.3 1.5zm239.2 142.3c27 7.5 44.7 24.4 52.7 50.2l2.3 7.5.3 144c.2 106.1 0 146-.8 151.5-2.6 16.6-10.8 32.1-22.3 42.5-7.3 6.6-20.8 13.6-32.2 16.7-7.8 2.2-9.4 2.2-80.2 2.6l-72.3.3V140.9l72.3.3c71.1.4 72.3.4 80.2 2.6zm280-1.7c12.7 2.3 20.8 9.2 24.7 20.9 2.2 6.3 2.2 8 2.6 63.8.4 61.9-.1 70.8-4.3 79.9-4.3 9.4-7.4 12.4-25 23.2-9.1 5.7-16.5 10.4-16.5 10.6 0 .1 6.9 4.5 15.2 9.6 22.4 13.8 28.1 20.3 31.4 35.8 1.7 8.3 2 133.6.3 144-2.1 13.3-8.5 21.8-19.8 26.3l-5.6 2.3-89.2.3-89.3.3V141h84.8c56.9 0 86.8.4 90.7 1.1z"/><path d="M182 350v155.1l28.8-.3c27.4-.3 29-.5 34.6-2.7 7.6-3 13.6-9 16.7-16.7l2.4-5.9V350c0-121.5-.1-129.8-1.8-134.6-2.8-8.2-7-12.9-14.5-16.6l-6.7-3.3-29.7-.3-29.8-.3V350zM438 255v61h48.7l14.4-10.3 14.4-10.3.3-50.7.2-50.7h-78v61zM438 436.5V506h80V387.2l-15.2-10.1-15.3-10.1H438v69.5z"/></svg>